# xmcd
# 
# Track frame offsets:
#     150
#     15721
#     33103
#     47423
#     67399
#     81273
#     97325
#     111507
#     128232
#     144966
#     160328
#     176823
#     196670
#     212371
#     230232
#     243095
#     261145
#     280865
# 
# Disc length: 3872
# 
# Revision: 0
# Processed by: cddbd v1.5.2PL0 Copyright (c) Steve Scherf et al.
# Submitted via: fre:ac v1.0.31
# 
DISCID=030f1e12
DTITLE=Various Artist - みんなのテレビ・ジェネレーションアニメ歌年鑑1985
DYEAR=0
DGENRE=Anime
TTITLE0=下成佐登子 - 花のささやき＜小公女せーら＞
TTITLE1=下成佐登子 - ひまわり＜小公女セーラ＞
TTITLE2=岩崎良美 - タッチ＜タッチ＞
TTITLE3=岩崎良美 - 君がいなければ＜タッチ＞
TTITLE4=天地総子 - 大人になんかならないよ＜オバケのQ太郎＞
TTITLE5=浜田良美 - BELIEVE ME＜オバケのQ太郎＞
TTITLE6=小幡洋子 - 不思議色ハピネス＜魔法のスター　マジカルエミ＞
TTITLE7=小幡洋子 - あなただけDreaming＜魔法のスター　マジカルエミ＞
TTITLE8=中原めいこ - ロ・ロ・ロ・ロシアン・ルーレット＜ダーティペア＞
TTITLE9=中原めいこ - 宇宙恋愛（スペース・ファンタジー）
TTITLE10=下成佐登子 - TRANSFORMER～トランスフォーマー～＜戦え！超ロボット生命体トランスフォーマー＞
TTITLE11=下成佐登子 - Peace Again～ピース・アゲイン～＜戦え！超ロボット生命体トランスフォーマー＞
TTITLE12=HIT BOY - ラブ・サバイバー＜忍者戦士飛影＞
TTITLE13=HIT BOY - 一世紀めのエンジェル＜忍者戦士飛影＞
TTITLE14=吉幾三 - ゲゲゲの鬼太郎＜ゲゲゲの鬼太郎＞
TTITLE15=吉幾三 - おばけがイクゾー＜ゲゲゲの鬼太郎＞
TTITLE16=うしろゆびさされ組 - うしろゆびさされ組＜ハイスクール！奇面組＞
TTITLE17=うしろゆびさされ組 - 女学生の決意＜ハイスクール！奇面組＞
EXTD=
EXTT0=
EXTT1=
EXTT2=
EXTT3=
EXTT4=
EXTT5=
EXTT6=
EXTT7=
EXTT8=
EXTT9=
EXTT10=
EXTT11=
EXTT12=
EXTT13=
EXTT14=
EXTT15=
EXTT16=
EXTT17=
PLAYORDER=
